<svg width="36" height="36" viewBox="0 0 36 36" fill="none" xmlns="http://www.w3.org/2000/svg">
<path d="M9.25 33H8C6.59375 32.9479 5.42188 32.4531 4.48438 31.5156C3.54688 30.5781 3.05208 29.4062 3 28V26.75C2.94792 25.9688 2.53125 25.5521 1.75 25.5C0.96875 25.5521 0.552083 25.9688 0.5 26.75V28C0.552083 30.1354 1.28125 31.9062 2.6875 33.3125C4.09375 34.7188 5.86458 35.4479 8 35.5H9.25C10.0312 35.4479 10.4479 35.0312 10.5 34.25C10.4479 33.4688 10.0312 33.0521 9.25 33ZM28 0.5H26.75C25.9688 0.552083 25.5521 0.96875 25.5 1.75C25.5521 2.53125 25.9688 2.94792 26.75 3H28C29.4062 3.05208 30.5781 3.54688 31.5156 4.48438C32.4531 5.42188 32.9479 6.59375 33 8V9.25C33.0521 10.0312 33.4688 10.4479 34.25 10.5C35.0312 10.4479 35.4479 10.0312 35.5 9.25V8C35.4479 5.86458 34.7188 4.09375 33.3125 2.6875C31.9062 1.28125 30.1354 0.552083 28 0.5ZM21.75 33H14.25C13.4688 33.0521 13.0521 33.4688 13 34.25C13.0521 35.0312 13.4688 35.4479 14.25 35.5H21.75C22.5312 35.4479 22.9479 35.0312 23 34.25C22.9479 33.4688 22.5312 33.0521 21.75 33ZM1.75 23C2.53125 22.9479 2.94792 22.5312 3 21.75V14.25C2.94792 13.4688 2.53125 13.0521 1.75 13C0.96875 13.0521 0.552083 13.4688 0.5 14.25V21.75C0.552083 22.5312 0.96875 22.9479 1.75 23ZM9.25 0.5H8C5.86458 0.552083 4.09375 1.28125 2.6875 2.6875C1.28125 4.09375 0.552083 5.86458 0.5 8V9.25C0.552083 10.0312 0.96875 10.4479 1.75 10.5C2.53125 10.4479 2.94792 10.0312 3 9.25V8C3.05208 6.59375 3.54688 5.42188 4.48438 4.48438C5.42188 3.54688 6.59375 3.05208 8 3H9.25C10.0312 2.94792 10.4479 2.53125 10.5 1.75C10.4479 0.96875 10.0312 0.552083 9.25 0.5ZM34.25 13C33.4688 13.0521 33.0521 13.4688 33 14.25V21.75C33.0521 22.5312 33.4688 22.9479 34.25 23C35.0312 22.9479 35.4479 22.5312 35.5 21.75V14.25C35.4479 13.4688 35.0312 13.0521 34.25 13ZM34.25 25.5C33.4688 25.5521 33.0521 25.9688 33 26.75V28C32.9479 29.4062 32.4531 30.5781 31.5156 31.5156C30.5781 32.4531 29.4062 32.9479 28 33H26.75C25.9688 33.0521 25.5521 33.4688 25.5 34.25C25.5521 35.0312 25.9688 35.4479 26.75 35.5H28C30.1354 35.4479 31.9062 34.7188 33.3125 33.3125C34.7188 31.9062 35.4479 30.1354 35.5 28V26.75C35.4479 25.9688 35.0312 25.5521 34.25 25.5ZM21.75 0.5H14.25C13.4688 0.552083 13.0521 0.96875 13 1.75C13.0521 2.53125 13.4688 2.94792 14.25 3H21.75C22.5312 2.94792 22.9479 2.53125 23 1.75C22.9479 0.96875 22.5312 0.552083 21.75 0.5Z" fill="#fff"/>
</svg>
